<?xml version="1.0" encoding="utf-8"?>
<!-- Generator: Adobe Illustrator 24.3.0, SVG Export Plug-In . SVG Version: 6.00 Build 0)  -->
<svg version="1.1" id="图层_1" xmlns="http://www.w3.org/2000/svg" xmlns:xlink="http://www.w3.org/1999/xlink" x="0px" y="0px"
	 viewBox="0 0 48 48" style="enable-background:new 0 0 48 48;" xml:space="preserve">
<style type="text/css">
	.st0{opacity:0.35;fill:#004578;enable-background:new    ;}
	.st1{fill:url(#SVGID_1_);}
	.st2{opacity:0.3;fill:#003A6B;enable-background:new    ;}
	.st3{fill:url(#SVGID_2_);}
</style>
<path class="st0" d="M4.8,9.5h38.3c1.9,0,3.4,1.9,3.4,4.1v24.8c0,2.3-1.5,4.1-3.4,4.1H4.8c-1.9,0-3.4-1.9-3.4-4.1V13.6
	C1.5,11.3,3,9.5,4.8,9.5z"/>
<linearGradient id="SVGID_1_" gradientUnits="userSpaceOnUse" x1="0.8378" y1="36.512" x2="48.2071" y2="8.0904" gradientTransform="matrix(1 0 0 -1 0 50)">
	<stop  offset="0" style="stop-color:#0078D4"/>
	<stop  offset="1" style="stop-color:#005A9E"/>
</linearGradient>
<path class="st1" d="M4.8,12.2h38.3c1.9,0,3.4,1.9,3.4,4.1v22c0,2.3-1.5,4.1-3.4,4.1H4.8c-1.9,0-3.4-1.9-3.4-4.1v-22
	C1.5,14.1,3,12.2,4.8,12.2z"/>
<path class="st2" d="M1.5,37.4v1c0,2.3,1.5,4.1,3.4,4.1h38.3c1.9,0,3.4-1.9,3.4-4.1v-1H1.5z"/>
<linearGradient id="SVGID_2_" gradientUnits="userSpaceOnUse" x1="4.6857" y1="21.445" x2="28.4755" y2="-2.3449">
	<stop  offset="0" style="stop-color:#50A5E6"/>
	<stop  offset="1" style="stop-color:#0078D4"/>
</linearGradient>
<path class="st3" d="M30.2,9.5V7.8c0-1.4-1-2.6-2.3-2.6H8.2c-1.3,0-2.3,1.1-2.3,2.6v1.7H30.2z"/>
</svg>
