<?xml version="1.0" encoding="utf-8"?>
<!-- Generator: Adobe Illustrator 24.3.0, SVG Export Plug-In . SVG Version: 6.00 Build 0)  -->
<svg version="1.1" id="图层_1" xmlns="http://www.w3.org/2000/svg" xmlns:xlink="http://www.w3.org/1999/xlink" x="0px" y="0px"
	 viewBox="0 0 48 48" style="enable-background:new 0 0 48 48;" xml:space="preserve">
<style type="text/css">
	.st0{fill:url(#SVGID_1_);}
	.st1{fill:url(#SVGID_2_);}
</style>
<linearGradient id="SVGID_1_" gradientUnits="userSpaceOnUse" x1="3.1902" y1="10.3236" x2="50.1902" y2="38.3237" gradientTransform="matrix(1 0 0 -1 0 50)">
	<stop  offset="0" style="stop-color:#0078D4"/>
	<stop  offset="1" style="stop-color:#005A9E"/>
</linearGradient>
<path class="st0" d="M4.8,12.2h38.3c1.9,0,3.4,1.9,3.4,4.1v22c0,2.3-1.5,4.1-3.4,4.1H4.8c-1.9,0-3.4-1.9-3.4-4.1v-22
	C1.4,14.1,2.9,12.2,4.8,12.2z"/>
<linearGradient id="SVGID_2_" gradientUnits="userSpaceOnUse" x1="5.0487" y1="27.9513" x2="28.0487" y2="50.9513" gradientTransform="matrix(1 0 0 -1 0 50)">
	<stop  offset="0" style="stop-color:#50A5E6"/>
	<stop  offset="1" style="stop-color:#0078D4"/>
</linearGradient>
<path class="st1" d="M30.2,10.5V8.8c0-1.4-1-2.6-2.3-2.6H8.2c-1.3,0-2.3,1.1-2.3,2.6v1.7C5.9,10.5,30.2,10.5,30.2,10.5z"/>
</svg>
